<svg width="61" height="23" viewBox="0 0 61 23" fill="none" xmlns="http://www.w3.org/2000/svg">
<path d="M49.5776 11.2511L55.2772 21.9237H60.8828L49.5776 0.782837L38.2725 21.9237H43.8781L49.5776 11.2511Z" fill="white"/>
<path d="M31.0248 16.9717L31.0404 0.750602H26.0924V21.9229H35.6283L38.2745 16.9717H31.0248Z" fill="white"/>
<path d="M12.2037 1.08901e-05C9.96703 -0.00309879 7.77976 0.659834 5.91857 1.90493C4.05739 3.15003 2.60594 4.92133 1.74787 6.99472C0.88981 9.06811 0.663695 11.3504 1.09814 13.5528C1.53258 15.7553 2.60806 17.7788 4.18849 19.3675C5.76892 20.9562 7.78328 22.0386 9.9767 22.4778C12.1701 22.9169 14.444 22.6931 16.5107 21.8346C18.5773 20.9762 20.3439 19.5216 21.5868 17.655C22.8297 15.7884 23.4932 13.5937 23.4932 11.3485C23.4932 8.34142 22.3042 5.45726 20.1875 3.32946C18.0707 1.20166 15.1993 0.00417583 12.2037 1.08901e-05ZM12.2037 17.4629C10.9983 17.466 9.81913 17.11 8.81541 16.44C7.81169 15.7701 7.02855 14.8162 6.56514 13.6993C6.10172 12.5823 5.97886 11.3524 6.21211 10.1653C6.44536 8.97821 7.02424 7.88727 7.87545 7.03059C8.72667 6.17391 9.81196 5.59001 10.9939 5.35281C12.1759 5.11561 13.4014 5.23577 14.5153 5.69809C15.6292 6.1604 16.5814 6.94408 17.2514 7.94992C17.9214 8.95576 18.279 10.1385 18.279 11.3485C18.2749 12.9716 17.6297 14.5267 16.4849 15.673C15.3401 16.8192 13.7892 17.4629 12.1723 17.4629H12.2037Z" fill="white"/>
</svg>
